<?xml version="1.0" encoding="utf-8"?>
<!-- Generator: Adobe Illustrator 16.0.4, SVG Export Plug-In . SVG Version: 6.00 Build 0)  -->
<!DOCTYPE svg PUBLIC "-//W3C//DTD SVG 1.1//EN" "http://www.w3.org/Graphics/SVG/1.1/DTD/svg11.dtd">
<svg version="1.1" id="Layer_1" xmlns="http://www.w3.org/2000/svg" xmlns:xlink="http://www.w3.org/1999/xlink" x="0px" y="0px"
	 width="125px" height="33px" viewBox="0 0 125 33" enable-background="new 0 0 125 33" xml:space="preserve">
<rect x="-1486" y="-565.204" fill="#41BFBC" width="640" height="1136"/>
<g>
	<g>
		<path fill="#DA6C44" d="M1103.126-263.667c-132.533,0-239.978,107.399-239.978,239.952c0,10.146,0.814,20.051,2.041,29.826
			c20.517,187.434,222.356,403.495,222.356,403.495c3.628,3.991,7.055,6.503,10.401,8.295l0.16,0.077l6.732,2.151l6.729-2.151
			l0.165-0.077c3.341-1.792,6.771-4.386,10.36-8.295c0,0,198.979-216.422,218.97-403.924c1.223-9.666,2.002-19.461,2.002-29.437
			C1343.068-156.268,1235.67-263.667,1103.126-263.667z M1103.087,173.864c-105.243,0-190.581-85.317-190.581-190.575
			c0-105.249,85.338-190.585,190.581-190.585c105.288,0,190.574,85.336,190.574,190.585
			C1293.661,88.547,1208.375,173.864,1103.087,173.864z"/>
	</g>
</g>
<g>
	<path fill="#FFFFFF" d="M13.05,11.287l-0.208,1.689c1.557-1.126,3.127-1.689,4.711-1.689c1.39,0,2.655,0.417,3.794,1.252
		l-2.939,3.314c-0.848-0.723-1.696-1.084-2.543-1.084c-0.583,0-1.098,0.116-1.542,0.349c-0.445,0.233-0.831,0.6-1.157,1.1
		c-0.327,0.501-0.598,1.146-0.813,1.937c-0.216,0.789-0.386,1.734-0.511,2.832l-1.209,9.939H6.024l2.418-19.639H13.05z"/>
	<path fill="#FFFFFF" d="M42.132,11.287l-1.397,11.164c-0.111,0.951-0.25,1.779-0.417,2.484c-0.167,0.707-0.348,1.297-0.542,1.772
		c-0.389,0.91-1.042,1.718-1.959,2.425c-1.557,1.195-3.606,1.792-6.15,1.792c-2.42,0-4.359-0.604-5.817-1.813
		c-1.459-1.221-2.188-2.858-2.188-4.909c0-0.312,0.017-0.679,0.052-1.101c0.035-0.42,0.087-0.902,0.158-1.445l1.304-10.37h4.635
		l-1.355,10.958c-0.056,0.47-0.098,0.88-0.125,1.232c-0.027,0.352-0.042,0.646-0.042,0.879c0,2.059,1.216,3.086,3.648,3.086
		c1.32,0,2.293-0.338,2.918-1.015s1.042-1.864,1.251-3.562l1.438-11.58h4.588V11.287z"/>
	<path fill="#FFFFFF" d="M53.14,11.287l-0.208,1.814c1.821-1.209,3.662-1.814,5.525-1.814c1.925,0,3.469,0.523,4.634,1.567
		c1.136,1.044,1.704,2.469,1.704,4.273c0,0.977-0.084,2.145-0.252,3.5l-1.325,10.297h-4.614L60.02,19.45
		c0.055-0.429,0.094-0.808,0.115-1.14c0.021-0.33,0.031-0.627,0.031-0.891c0-1.767-0.959-2.651-2.877-2.651
		c-1.182,0-2.196,0.359-3.044,1.077c-0.695,0.566-1.209,1.257-1.542,2.071c-0.181,0.415-0.333,0.922-0.458,1.522
		s-0.237,1.293-0.334,2.082l-1.167,9.403h-4.607l2.418-19.639L53.14,11.287L53.14,11.287z"/>
	<path fill="#FFFFFF" d="M76.468,15.519L74.57,30.925h-4.627l1.906-15.406h-2.615l0.521-4.232h2.617l1.131-9.11h4.612l-1.127,9.11
		h4.254l-0.521,4.232H76.468z"/>
	<path fill="#FFFFFF" d="M101.527,11.287l-1.397,11.164c-0.11,0.951-0.25,1.779-0.417,2.484c-0.167,0.707-0.348,1.297-0.542,1.772
		c-0.389,0.91-1.042,1.718-1.959,2.425c-1.558,1.195-3.606,1.792-6.149,1.792c-2.42,0-4.359-0.604-5.817-1.813
		c-1.459-1.221-2.188-2.858-2.188-4.909c0-0.312,0.018-0.679,0.053-1.101c0.035-0.42,0.086-0.902,0.158-1.445l1.303-10.37h4.636
		l-1.354,10.958c-0.057,0.47-0.099,0.88-0.125,1.232c-0.027,0.352-0.043,0.646-0.043,0.879c0,2.059,1.217,3.086,3.648,3.086
		c1.32,0,2.293-0.338,2.918-1.015s1.042-1.864,1.251-3.562l1.438-11.58h4.588V11.287z"/>
	<path fill="#FFFFFF" d="M112.555,11.287l-0.207,1.689c1.557-1.126,3.127-1.689,4.711-1.689c1.39,0,2.654,0.417,3.793,1.252
		l-2.938,3.314c-0.849-0.723-1.696-1.084-2.543-1.084c-0.583,0-1.099,0.116-1.542,0.349c-0.445,0.233-0.831,0.6-1.157,1.1
		c-0.327,0.501-0.598,1.146-0.813,1.937c-0.215,0.789-0.385,1.734-0.51,2.832l-1.209,9.939h-4.607l2.418-19.639H112.555z"/>
</g>
</svg>
