<?xml version="1.0" encoding="utf-8"?>
<!-- Generator: Adobe Illustrator 16.0.4, SVG Export Plug-In . SVG Version: 6.00 Build 0)  -->
<!DOCTYPE svg PUBLIC "-//W3C//DTD SVG 1.1//EN" "http://www.w3.org/Graphics/SVG/1.1/DTD/svg11.dtd">
<svg version="1.1" id="Layer_1" xmlns="http://www.w3.org/2000/svg" xmlns:xlink="http://www.w3.org/1999/xlink" x="0px" y="0px"
	 width="38px" height="47.098px" viewBox="6.5 -1.833 38 47.098" enable-background="new 6.5 -1.833 38 47.098"
	 xml:space="preserve">
<g>
	<circle fill="#FFFFFF" cx="25.901" cy="14.818" r="14.018"/>
	<circle fill="#FFFFFF" cx="25.901" cy="15.848" r="14.025"/>
	<g>
		<g>
			<g>
				<path fill="#DA6B44" d="M25.5-0.83c-8.739,0-15.824,7.082-15.824,15.823c0,0.668,0.053,1.322,0.134,1.967
					c1.353,12.36,14.664,26.608,14.664,26.608c0.239,0.262,0.465,0.428,0.685,0.547l0.013,0.004l0.443,0.143l0.444-0.143
					l0.009-0.004c0.222-0.119,0.445-0.291,0.685-0.547c0,0,13.122-14.271,14.44-26.636c0.081-0.637,0.132-1.284,0.132-1.941
					C41.324,6.252,34.243-0.83,25.5-0.83z M25.498,28.023c-6.937,0-12.566-5.627-12.566-12.569c0-6.938,5.628-12.568,12.566-12.568
					c6.942,0,12.569,5.627,12.569,12.568C38.067,22.396,32.44,28.023,25.498,28.023z"/>
			</g>
		</g>
		<g opacity="0.2">
			<g>
				
					<radialGradient id="SVGID_1_" cx="-18.5" cy="184.3926" r="19.4768" gradientTransform="matrix(1 0 0 -2 44 390.5)" gradientUnits="userSpaceOnUse">
					<stop  offset="0" style="stop-color:#FFFFFF"/>
					<stop  offset="1" style="stop-color:#000000"/>
				</radialGradient>
				<path fill="url(#SVGID_1_)" d="M25.5-0.83c-8.739,0-15.824,7.082-15.824,15.823c0,0.668,0.053,1.322,0.134,1.967
					c1.353,12.36,14.664,26.608,14.664,26.608c0.239,0.262,0.465,0.428,0.685,0.547l0.013,0.004l0.443,0.143l0.444-0.143
					l0.009-0.004c0.222-0.119,0.445-0.291,0.685-0.547c0,0,13.122-14.271,14.44-26.636c0.081-0.637,0.132-1.284,0.132-1.941
					C41.324,6.252,34.243-0.83,25.5-0.83z M25.498,28.023c-6.937,0-12.566-5.627-12.566-12.569c0-6.938,5.628-12.568,12.566-12.568
					c6.942,0,12.569,5.627,12.569,12.568C38.067,22.396,32.44,28.023,25.498,28.023z"/>
			</g>
		</g>
		<path fill="#CC5939" d="M30.976,22.471l-0.007-12.68c0.149-1.3-1.265-1.349-1.265-1.349l-7.291,0.012
			c-1.28-0.131-1.44,0.941-1.44,0.941v2.206h-2.657c-0.763,0.056-0.905,0.848-0.905,0.848v7.292c0.058,0.789,0.992,0.9,0.992,0.9
			h2.57l0.028,1.756c-0.056,1.619,1.412,1.393,1.412,1.393h7.216C31.136,23.828,30.976,22.471,30.976,22.471z M21.019,18.816h-1.321
			c0,0-0.505-0.018-0.469-0.453l-0.003-4.483c0,0-0.091-0.527,0.455-0.471h1.34v5.407H21.019z"/>
	</g>
</g>
</svg>
