<?xml version="1.0" encoding="utf-8"?>
<!-- Generator: Adobe Illustrator 16.0.4, SVG Export Plug-In . SVG Version: 6.00 Build 0)  -->
<!DOCTYPE svg PUBLIC "-//W3C//DTD SVG 1.1//EN" "http://www.w3.org/Graphics/SVG/1.1/DTD/svg11.dtd">
<svg version="1.1" id="Capa_1" xmlns="http://www.w3.org/2000/svg" xmlns:xlink="http://www.w3.org/1999/xlink" x="0px" y="0px"
	 width="60px" height="60px" viewBox="-6.833 -6.25 60 60" enable-background="new -6.833 -6.25 60 60" xml:space="preserve">
<g>
	<circle fill="#B5B5B5" cx="23.168" cy="23.749" r="29.319"/>
	<g>
		<path fill="#878583" d="M23.168-5.569C6.941-5.569-6.213,7.585-6.213,23.812c0,7.073,2.5,13.557,6.66,18.627
			c0.643-5.141,5.777-9.488,12.978-11.547c2.631,2.451,6.027,3.938,9.743,3.938c3.628,0,6.958-1.414,9.562-3.76
			c7.262,2.241,12.286,6.84,12.451,12.19c4.582-5.182,7.365-11.99,7.365-19.448C52.547,7.585,39.396-5.569,23.168-5.569z
			 M23.168,31.35c-1.875,0-3.642-0.512-5.213-1.407c-3.78-2.152-6.385-6.556-6.385-11.64c0-7.194,5.202-13.047,11.598-13.047
			s11.599,5.854,11.599,13.047c0,5.162-2.687,9.619-6.562,11.734C26.679,30.869,24.974,31.35,23.168,31.35z"/>
	</g>
</g>
</svg>
